<svg width="501" height="501" viewBox="0 0 501 501" fill="none" xmlns="http://www.w3.org/2000/svg">
<circle cx="250.625" cy="250.577" r="250" fill="#ECE7FF"/>
<path d="M400.004 401.852H101.246C99.2313 401.852 97.2989 401.052 95.8743 399.624C94.4498 398.201 93.6492 396.269 93.6492 394.253V198.705H407.604V394.253C407.604 396.269 406.803 398.201 405.376 399.624C403.952 401.052 402.021 401.852 400.004 401.852Z" fill="white"/>
<path d="M407.604 198.704H93.6492L158.29 143.301H342.968L407.604 198.704Z" fill="#006BFF"/>
<path d="M407.604 198.704H93.6492L158.29 143.301H342.968L407.604 198.704Z" stroke="black" stroke-width="0.48" stroke-linecap="round" stroke-linejoin="round"/>
<path d="M400.004 401.852H101.246C99.2313 401.852 97.2989 401.052 95.8743 399.624C94.4498 398.201 93.6492 396.269 93.6492 394.253V198.705H407.604V394.253C407.604 396.269 406.803 398.201 405.376 399.624C403.952 401.052 402.021 401.852 400.004 401.852Z" stroke="black" stroke-width="0.48" stroke-linecap="round" stroke-linejoin="round"/>
<path d="M342.967 143.302L381.559 104.71C383.861 102.408 386.729 100.756 389.876 99.9202C393.023 99.0849 396.332 99.0968 399.47 99.9546L474.264 120.352C475.866 120.791 477.323 121.654 478.475 122.851C479.631 124.048 480.44 125.535 480.822 127.154C481.199 128.772 481.135 130.463 480.635 132.049C480.131 133.634 479.212 135.055 477.971 136.161L407.599 198.705L342.967 143.302Z" fill="white"/>
<path d="M342.967 143.302L381.559 104.71C383.861 102.408 386.729 100.756 389.876 99.9202C393.023 99.0849 396.332 99.0968 399.47 99.9546L474.264 120.352C475.866 120.791 477.323 121.654 478.475 122.851C479.631 124.048 480.44 125.535 480.822 127.154C481.199 128.772 481.135 130.463 480.635 132.049C480.131 133.634 479.212 135.055 477.971 136.161L407.599 198.705L342.967 143.302Z" stroke="black" stroke-width="0.48" stroke-linecap="round" stroke-linejoin="round"/>
<path d="M158.292 143.304L119.7 104.712C117.398 102.41 114.528 100.757 111.381 99.9216C108.233 99.0863 104.921 99.0985 101.78 99.9567L26.9892 120.354C25.3842 120.792 23.9275 121.655 22.7724 122.852C21.6177 124.049 20.8077 125.537 20.429 127.157C20.0499 128.776 20.1156 130.468 20.6192 132.054C21.1225 133.639 22.0455 135.059 23.2896 136.163L93.651 198.707L158.292 143.304Z" fill="white"/>
<path d="M158.292 143.304L119.7 104.712C117.398 102.41 114.528 100.757 111.381 99.9216C108.233 99.0863 104.921 99.0985 101.78 99.9567L26.9892 120.354C25.3842 120.792 23.9275 121.655 22.7724 122.852C21.6177 124.049 20.8077 125.537 20.429 127.157C20.0499 128.776 20.1156 130.468 20.6192 132.054C21.1225 133.639 22.0455 135.059 23.2896 136.163L93.651 198.707L158.292 143.304Z" stroke="black" stroke-width="0.48" stroke-linecap="round" stroke-linejoin="round"/>
<path d="M342.967 198.704V143.301" stroke="black" stroke-width="0.48" stroke-linecap="round" stroke-linejoin="round"/>
<path d="M158.293 198.704V143.301" stroke="black" stroke-width="0.48" stroke-linecap="round" stroke-linejoin="round"/>
<path d="M268.331 313.676C265.244 316.418 261.393 319.833 254.382 319.833H250.205C245.137 319.833 240.542 317.998 237.236 314.656C234.021 311.405 232.241 306.937 232.241 302.088V296.366C232.241 291.517 234.021 287.067 237.236 283.797C240.524 280.455 245.137 278.621 250.205 278.621H254.382C261.393 278.621 265.244 282.036 268.331 284.778C271.546 287.612 274.307 290.082 281.681 290.082C282.825 290.082 283.952 289.991 285.041 289.809C285.041 289.791 285.023 289.773 285.023 289.737C284.587 288.647 284.061 287.575 283.479 286.54L278.539 278.003C274.016 270.157 265.643 265.326 256.598 265.326H246.735C237.69 265.326 229.317 270.157 224.794 278.003L219.854 286.54C215.332 294.386 215.332 304.031 219.854 311.878L224.794 320.414C229.317 328.261 237.69 333.092 246.735 333.092H256.598C265.643 333.092 274.016 328.261 278.539 320.414L283.479 311.878C284.079 310.842 284.587 309.771 285.023 308.699C285.023 308.681 285.041 308.663 285.041 308.626C283.952 308.445 282.825 308.354 281.681 308.354C274.307 308.372 271.546 310.824 268.331 313.676Z" fill="#006BFF"/>
<path d="M254.4 283.816H250.223C242.522 283.816 237.454 289.319 237.454 296.366V302.088C237.454 309.135 242.522 314.638 250.223 314.638H254.4C265.625 314.638 264.753 303.196 281.699 303.196C283.316 303.196 284.932 303.341 286.494 303.632C287.003 300.725 287.003 297.747 286.494 294.822C284.932 295.113 283.334 295.258 281.699 295.258C264.735 295.258 265.625 283.816 254.4 283.816Z" fill="#006BFF"/>
<path d="M296.212 307.809C293.324 305.666 290 304.285 286.476 303.632C286.476 303.668 286.458 303.686 286.458 303.722C286.149 305.393 285.677 307.046 285.041 308.663C288.02 309.135 290.745 310.261 293.088 311.968C293.088 311.987 293.069 312.023 293.069 312.041C291.725 316.418 289.691 320.56 287.021 324.319C284.387 328.025 281.209 331.294 277.576 334.037C270.02 339.703 261.012 342.7 251.53 342.7C245.664 342.7 239.961 341.556 234.621 339.286C229.444 337.088 224.794 333.964 220.799 329.968C216.803 325.972 213.679 321.322 211.481 316.146C209.21 310.788 208.066 305.103 208.066 299.236C208.066 293.369 209.21 287.666 211.481 282.326C213.679 277.15 216.803 272.5 220.799 268.504C224.794 264.508 229.444 261.384 234.621 259.187C239.979 256.916 245.664 255.772 251.53 255.772C261.012 255.772 270.02 258.769 277.576 264.436C281.209 267.16 284.406 270.429 287.021 274.153C289.691 277.913 291.725 282.036 293.069 286.431C293.069 286.468 293.088 286.486 293.088 286.504C290.745 288.211 288.002 289.337 285.041 289.81C285.677 291.408 286.149 293.061 286.458 294.75C286.458 294.768 286.458 294.804 286.476 294.823C290 294.169 293.324 292.77 296.212 290.645C298.991 288.593 298.446 286.268 298.028 284.887C291.907 265.017 273.399 250.577 251.53 250.577C224.667 250.577 202.872 272.355 202.872 299.236C202.872 326.118 224.649 347.895 251.53 347.895C273.417 347.895 291.925 333.455 298.028 313.585C298.464 312.186 298.991 309.862 296.212 307.809Z" fill="#006BFF"/>
<path d="M285.06 289.81C283.97 289.991 282.844 290.082 281.7 290.082C274.325 290.082 271.546 287.63 268.35 284.778C265.262 282.036 261.411 278.621 254.4 278.621H250.223C245.155 278.621 240.56 280.456 237.254 283.798C234.04 287.049 232.26 291.517 232.26 296.366V302.088C232.26 306.937 234.04 311.387 237.254 314.657C240.542 317.999 245.155 319.833 250.223 319.833H254.4C261.411 319.833 265.262 316.418 268.35 313.676C271.565 310.842 274.325 308.372 281.7 308.372C282.844 308.372 283.97 308.463 285.06 308.645C285.695 307.046 286.168 305.393 286.476 303.704C286.476 303.668 286.495 303.65 286.495 303.613C284.933 303.323 283.334 303.178 281.7 303.178C264.753 303.178 265.625 314.62 254.4 314.62H250.223C242.522 314.62 237.454 309.117 237.454 302.07V296.366C237.454 289.319 242.522 283.816 250.223 283.816H254.4C265.625 283.816 264.753 295.258 281.7 295.258C283.316 295.258 284.933 295.113 286.495 294.823C286.495 294.804 286.495 294.768 286.476 294.75C286.168 293.061 285.695 291.408 285.06 289.81Z" fill="#0AE9EF"/>
<path d="M285.06 289.81C283.97 289.991 282.844 290.082 281.7 290.082C274.325 290.082 271.546 287.63 268.35 284.778C265.262 282.036 261.411 278.621 254.4 278.621H250.223C245.155 278.621 240.56 280.456 237.254 283.798C234.04 287.049 232.26 291.517 232.26 296.366V302.088C232.26 306.937 234.04 311.387 237.254 314.657C240.542 317.999 245.155 319.833 250.223 319.833H254.4C261.411 319.833 265.262 316.418 268.35 313.676C271.565 310.842 274.325 308.372 281.7 308.372C282.844 308.372 283.97 308.463 285.06 308.645C285.695 307.046 286.168 305.393 286.476 303.704C286.476 303.668 286.495 303.65 286.495 303.613C284.933 303.323 283.334 303.178 281.7 303.178C264.753 303.178 265.625 314.62 254.4 314.62H250.223C242.522 314.62 237.454 309.117 237.454 302.07V296.366C237.454 289.319 242.522 283.816 250.223 283.816H254.4C265.625 283.816 264.753 295.258 281.7 295.258C283.316 295.258 284.933 295.113 286.495 294.823C286.495 294.804 286.495 294.768 286.476 294.75C286.168 293.061 285.695 291.408 285.06 289.81Z" fill="#0AE9EF"/>
</svg>
